<?xml version='1.0' encoding='utf-8'?>
<svg xmlns="http://www.w3.org/2000/svg" width="1600" height="1000" viewBox="0 0 1600 1000" data-wondernest-asset="rock-stone-system" data-wondernest-status="standalone-master-v1.0" data-session="3.4"><g id="g-rock-stone-system" class="wn-asset-group" data-asset-role="reusable-environment-component" data-scope="world-rocks-and-stones"><g id="g-rock-01" class="wn-rock" transform="translate(120 820) rotate(-6) scale(1.25 1.1875)"><ellipse id="rock-01-ground-shadow" class="wn-rock-ground-shadow" cx="0" cy="8" rx="45" ry="12" fill="#394634" opacity="0.24" /><path id="rock-01-base" class="wn-rock-base" d="M -42 4 C -45 -18 -29 -43 -5 -52 C 20 -58 43 -40 48 -15 C 52 5 38 22 12 27 C -15 31 -38 25 -42 4 Z" fill="#77766b" /><path id="rock-01-light-plane" class="wn-rock-light-plane" d="M -31 -10 C -25 -30 -10 -42 7 -45 C 20 -45 31 -37 36 -25 C 16 -27 -2 -20 -17 -8 C -23 -3 -28 -5 -31 -10 Z" fill="#a3a092" opacity="0.78" /><path id="rock-01-shadow-plane" class="wn-rock-shadow-plane" d="M -42 4 C -29 14 -9 16 12 13 C 29 11 42 2 48 -10 C 52 8 38 22 12 27 C -15 31 -38 25 -42 4 Z" fill="#55564f" opacity="0.72" /><path id="rock-01-surface-accent" class="wn-rock-surface-accent" d="M -10 -17 C 1 -23 12 -24 21 -20" fill="none" stroke="#b7b1a2" stroke-width="4" stroke-linecap="round" opacity="0.42" /></g><g id="g-rock-02" class="wn-rock" transform="translate(300 875) rotate(8) scale(0.72 0.792)"><ellipse id="rock-02-ground-shadow" class="wn-rock-ground-shadow" cx="0" cy="8" rx="45" ry="12" fill="#394634" opacity="0.24" /><path id="rock-02-base" class="wn-rock-base" d="M -42 4 C -45 -18 -29 -43 -5 -52 C 20 -58 43 -40 48 -15 C 52 5 38 22 12 27 C -15 31 -38 25 -42 4 Z" fill="#77766b" /><path id="rock-02-light-plane" class="wn-rock-light-plane" d="M -31 -10 C -25 -30 -10 -42 7 -45 C 20 -45 31 -37 36 -25 C 16 -27 -2 -20 -17 -8 C -23 -3 -28 -5 -31 -10 Z" fill="#a3a092" opacity="0.78" /><path id="rock-02-shadow-plane" class="wn-rock-shadow-plane" d="M -42 4 C -29 14 -9 16 12 13 C 29 11 42 2 48 -10 C 52 8 38 22 12 27 C -15 31 -38 25 -42 4 Z" fill="#55564f" opacity="0.72" /><path id="rock-02-surface-accent" class="wn-rock-surface-accent" d="M -10 -17 C 1 -23 12 -24 21 -20" fill="none" stroke="#b7b1a2" stroke-width="4" stroke-linecap="round" opacity="0.42" /></g><g id="g-rock-03" class="wn-rock" transform="translate(475 790) rotate(-4) scale(1.55 1.364)"><ellipse id="rock-03-ground-shadow" class="wn-rock-ground-shadow" cx="0" cy="8" rx="45" ry="12" fill="#394634" opacity="0.24" /><path id="rock-03-base" class="wn-rock-base" d="M -42 4 C -45 -18 -29 -43 -5 -52 C 20 -58 43 -40 48 -15 C 52 5 38 22 12 27 C -15 31 -38 25 -42 4 Z" fill="#77766b" /><path id="rock-03-light-plane" class="wn-rock-light-plane" d="M -31 -10 C -25 -30 -10 -42 7 -45 C 20 -45 31 -37 36 -25 C 16 -27 -2 -20 -17 -8 C -23 -3 -28 -5 -31 -10 Z" fill="#a3a092" opacity="0.78" /><path id="rock-03-shadow-plane" class="wn-rock-shadow-plane" d="M -42 4 C -29 14 -9 16 12 13 C 29 11 42 2 48 -10 C 52 8 38 22 12 27 C -15 31 -38 25 -42 4 Z" fill="#55564f" opacity="0.72" /><path id="rock-03-surface-accent" class="wn-rock-surface-accent" d="M -10 -17 C 1 -23 12 -24 21 -20" fill="none" stroke="#b7b1a2" stroke-width="4" stroke-linecap="round" opacity="0.42" /></g><g id="g-rock-04" class="wn-rock" transform="translate(655 900) rotate(5) scale(0.55 0.55)"><ellipse id="rock-04-ground-shadow" class="wn-rock-ground-shadow" cx="0" cy="8" rx="45" ry="12" fill="#394634" opacity="0.24" /><path id="rock-04-base" class="wn-rock-base" d="M -42 4 C -45 -18 -29 -43 -5 -52 C 20 -58 43 -40 48 -15 C 52 5 38 22 12 27 C -15 31 -38 25 -42 4 Z" fill="#77766b" /><path id="rock-04-light-plane" class="wn-rock-light-plane" d="M -31 -10 C -25 -30 -10 -42 7 -45 C 20 -45 31 -37 36 -25 C 16 -27 -2 -20 -17 -8 C -23 -3 -28 -5 -31 -10 Z" fill="#a3a092" opacity="0.78" /><path id="rock-04-shadow-plane" class="wn-rock-shadow-plane" d="M -42 4 C -29 14 -9 16 12 13 C 29 11 42 2 48 -10 C 52 8 38 22 12 27 C -15 31 -38 25 -42 4 Z" fill="#55564f" opacity="0.72" /><path id="rock-04-surface-accent" class="wn-rock-surface-accent" d="M -10 -17 C 1 -23 12 -24 21 -20" fill="none" stroke="#b7b1a2" stroke-width="4" stroke-linecap="round" opacity="0.42" /></g><g id="g-rock-05" class="wn-rock" transform="translate(825 835) rotate(-8) scale(1.05 1.2075)"><ellipse id="rock-05-ground-shadow" class="wn-rock-ground-shadow" cx="0" cy="8" rx="45" ry="12" fill="#394634" opacity="0.24" /><path id="rock-05-base" class="wn-rock-base" d="M -42 4 C -45 -18 -29 -43 -5 -52 C 20 -58 43 -40 48 -15 C 52 5 38 22 12 27 C -15 31 -38 25 -42 4 Z" fill="#77766b" /><path id="rock-05-light-plane" class="wn-rock-light-plane" d="M -31 -10 C -25 -30 -10 -42 7 -45 C 20 -45 31 -37 36 -25 C 16 -27 -2 -20 -17 -8 C -23 -3 -28 -5 -31 -10 Z" fill="#a3a092" opacity="0.78" /><path id="rock-05-shadow-plane" class="wn-rock-shadow-plane" d="M -42 4 C -29 14 -9 16 12 13 C 29 11 42 2 48 -10 C 52 8 38 22 12 27 C -15 31 -38 25 -42 4 Z" fill="#55564f" opacity="0.72" /><path id="rock-05-surface-accent" class="wn-rock-surface-accent" d="M -10 -17 C 1 -23 12 -24 21 -20" fill="none" stroke="#b7b1a2" stroke-width="4" stroke-linecap="round" opacity="0.42" /></g><g id="g-rock-06" class="wn-rock" transform="translate(1010 905) rotate(7) scale(0.68 0.6256)"><ellipse id="rock-06-ground-shadow" class="wn-rock-ground-shadow" cx="0" cy="8" rx="45" ry="12" fill="#394634" opacity="0.24" /><path id="rock-06-base" class="wn-rock-base" d="M -42 4 C -45 -18 -29 -43 -5 -52 C 20 -58 43 -40 48 -15 C 52 5 38 22 12 27 C -15 31 -38 25 -42 4 Z" fill="#77766b" /><path id="rock-06-light-plane" class="wn-rock-light-plane" d="M -31 -10 C -25 -30 -10 -42 7 -45 C 20 -45 31 -37 36 -25 C 16 -27 -2 -20 -17 -8 C -23 -3 -28 -5 -31 -10 Z" fill="#a3a092" opacity="0.78" /><path id="rock-06-shadow-plane" class="wn-rock-shadow-plane" d="M -42 4 C -29 14 -9 16 12 13 C 29 11 42 2 48 -10 C 52 8 38 22 12 27 C -15 31 -38 25 -42 4 Z" fill="#55564f" opacity="0.72" /><path id="rock-06-surface-accent" class="wn-rock-surface-accent" d="M -10 -17 C 1 -23 12 -24 21 -20" fill="none" stroke="#b7b1a2" stroke-width="4" stroke-linecap="round" opacity="0.42" /></g><g id="g-rock-07" class="wn-rock" transform="translate(1175 800) rotate(-5) scale(1.4 1.47)"><ellipse id="rock-07-ground-shadow" class="wn-rock-ground-shadow" cx="0" cy="8" rx="45" ry="12" fill="#394634" opacity="0.24" /><path id="rock-07-base" class="wn-rock-base" d="M -42 4 C -45 -18 -29 -43 -5 -52 C 20 -58 43 -40 48 -15 C 52 5 38 22 12 27 C -15 31 -38 25 -42 4 Z" fill="#77766b" /><path id="rock-07-light-plane" class="wn-rock-light-plane" d="M -31 -10 C -25 -30 -10 -42 7 -45 C 20 -45 31 -37 36 -25 C 16 -27 -2 -20 -17 -8 C -23 -3 -28 -5 -31 -10 Z" fill="#a3a092" opacity="0.78" /><path id="rock-07-shadow-plane" class="wn-rock-shadow-plane" d="M -42 4 C -29 14 -9 16 12 13 C 29 11 42 2 48 -10 C 52 8 38 22 12 27 C -15 31 -38 25 -42 4 Z" fill="#55564f" opacity="0.72" /><path id="rock-07-surface-accent" class="wn-rock-surface-accent" d="M -10 -17 C 1 -23 12 -24 21 -20" fill="none" stroke="#b7b1a2" stroke-width="4" stroke-linecap="round" opacity="0.42" /></g><g id="g-rock-08" class="wn-rock" transform="translate(1360 875) rotate(6) scale(0.82 0.9184)"><ellipse id="rock-08-ground-shadow" class="wn-rock-ground-shadow" cx="0" cy="8" rx="45" ry="12" fill="#394634" opacity="0.24" /><path id="rock-08-base" class="wn-rock-base" d="M -42 4 C -45 -18 -29 -43 -5 -52 C 20 -58 43 -40 48 -15 C 52 5 38 22 12 27 C -15 31 -38 25 -42 4 Z" fill="#77766b" /><path id="rock-08-light-plane" class="wn-rock-light-plane" d="M -31 -10 C -25 -30 -10 -42 7 -45 C 20 -45 31 -37 36 -25 C 16 -27 -2 -20 -17 -8 C -23 -3 -28 -5 -31 -10 Z" fill="#a3a092" opacity="0.78" /><path id="rock-08-shadow-plane" class="wn-rock-shadow-plane" d="M -42 4 C -29 14 -9 16 12 13 C 29 11 42 2 48 -10 C 52 8 38 22 12 27 C -15 31 -38 25 -42 4 Z" fill="#55564f" opacity="0.72" /><path id="rock-08-surface-accent" class="wn-rock-surface-accent" d="M -10 -17 C 1 -23 12 -24 21 -20" fill="none" stroke="#b7b1a2" stroke-width="4" stroke-linecap="round" opacity="0.42" /></g><g id="g-rock-09" class="wn-rock" transform="translate(1510 820) rotate(-7) scale(1.18 1.1563999999999999)"><ellipse id="rock-09-ground-shadow" class="wn-rock-ground-shadow" cx="0" cy="8" rx="45" ry="12" fill="#394634" opacity="0.24" /><path id="rock-09-base" class="wn-rock-base" d="M -42 4 C -45 -18 -29 -43 -5 -52 C 20 -58 43 -40 48 -15 C 52 5 38 22 12 27 C -15 31 -38 25 -42 4 Z" fill="#77766b" /><path id="rock-09-light-plane" class="wn-rock-light-plane" d="M -31 -10 C -25 -30 -10 -42 7 -45 C 20 -45 31 -37 36 -25 C 16 -27 -2 -20 -17 -8 C -23 -3 -28 -5 -31 -10 Z" fill="#a3a092" opacity="0.78" /><path id="rock-09-shadow-plane" class="wn-rock-shadow-plane" d="M -42 4 C -29 14 -9 16 12 13 C 29 11 42 2 48 -10 C 52 8 38 22 12 27 C -15 31 -38 25 -42 4 Z" fill="#55564f" opacity="0.72" /><path id="rock-09-surface-accent" class="wn-rock-surface-accent" d="M -10 -17 C 1 -23 12 -24 21 -20" fill="none" stroke="#b7b1a2" stroke-width="4" stroke-linecap="round" opacity="0.42" /></g></g></svg>